<svg width="43" height="43" viewBox="0 0 43 43" fill="none" xmlns="http://www.w3.org/2000/svg">
<path fill-rule="evenodd" clip-rule="evenodd" d="M21.5 0C20.2905 0 19.1769 0.300573 17.9576 0.804843C16.7802 1.29177 15.4127 2.00942 13.7098 2.90305L9.57477 5.07302C7.48484 6.16974 5.81232 7.04742 4.52095 7.90982C3.18308 8.80328 2.15264 9.74402 1.40224 11.0184C0.654362 12.2884 0.317917 13.6637 0.156577 15.3014C-2.91914e-05 16.8912 -1.61136e-05 18.8463 3.36114e-07 21.3051V21.6948C-1.61136e-05 24.1537 -2.91914e-05 26.1088 0.156577 27.6986C0.317917 29.3363 0.654362 30.7116 1.40224 31.9816C2.15264 33.256 3.18308 34.1967 4.52095 35.0902C5.81231 35.9526 7.48481 36.8302 9.57474 37.927L13.7096 40.0969C15.4126 40.9905 16.7801 41.7082 17.9576 42.1952C19.1769 42.6994 20.2905 43 21.5 43C22.7095 43 23.8231 42.6994 25.0424 42.1952C26.2198 41.7082 27.5873 40.9906 29.2901 40.097L33.4252 37.927C35.5151 36.8303 37.1877 35.9526 38.4791 35.0902C39.8169 34.1967 40.8474 33.256 41.5978 31.9816C42.3456 30.7116 42.6821 29.3363 42.8434 27.6986C43 26.1089 43 24.1537 43 21.6949V21.3051C43 18.8463 43 16.8911 42.8434 15.3014C42.6821 13.6637 42.3456 12.2884 41.5978 11.0184C40.8474 9.74403 39.8169 8.80328 38.4791 7.90983C37.1877 7.04742 35.5152 6.16974 33.4252 5.073L29.2902 2.90308C27.5874 2.00943 26.2199 1.29177 25.0424 0.804844C23.8231 0.300573 22.7095 0 21.5 0ZM15.0416 5.59215C16.821 4.65835 18.068 4.00559 19.1041 3.57712C20.1125 3.16008 20.8209 3 21.5 3C22.1791 3 22.8875 3.16008 23.8959 3.57712C24.932 4.00559 26.179 4.65835 27.9584 5.59215L31.9584 7.69126C34.1378 8.83495 35.6689 9.64065 36.813 10.4046C37.3774 10.7816 37.8209 11.1316 38.1789 11.4835L31.5176 14.8142L14.5179 5.86698L15.0416 5.59215ZM11.3893 7.50878L11.0416 7.69125C8.86221 8.83495 7.33106 9.64065 6.18703 10.4046C5.62263 10.7816 5.17912 11.1316 4.82107 11.4835L21.5 19.8229L28.2143 16.4658L11.8014 7.82738C11.6419 7.74345 11.5038 7.63487 11.3893 7.50878ZM3.37536 14.1147C3.27436 14.5425 3.19801 15.0283 3.14212 15.5956C3.00168 17.0212 3 18.8288 3 21.383V21.617C3 24.1712 3.00168 25.9788 3.14212 27.4044C3.27948 28.7988 3.54044 29.7004 3.98735 30.4594C4.43174 31.2141 5.07454 31.8524 6.18703 32.5954C7.33106 33.3594 8.86221 34.1651 11.0416 35.3087L15.0416 37.4078C16.821 38.3417 18.068 38.9944 19.1041 39.4229C19.4312 39.5582 19.7268 39.6664 20 39.7509V22.427L3.37536 14.1147ZM23 39.7509C23.2732 39.6664 23.5688 39.5582 23.8959 39.4229C24.932 38.9944 26.179 38.3417 27.9584 37.4078L31.9584 35.3087C34.1378 34.165 35.6689 33.3594 36.813 32.5954C37.9255 31.8524 38.5683 31.2141 39.0127 30.4594C39.4596 29.7004 39.7205 28.7988 39.8579 27.4044C39.9983 25.9788 40 24.1712 40 21.617V21.383C40 18.8288 39.9983 17.0212 39.8579 15.5956C39.802 15.0282 39.7256 14.5425 39.6246 14.1147L33 17.427V23.5C33 24.3284 32.3284 25 31.5 25C30.6716 25 30 24.3284 30 23.5V18.927L23 22.427V39.7509Z" fill="#159747"/>
</svg>
