<svg width="25" height="24" viewBox="0 0 25 24" fill="none" xmlns="http://www.w3.org/2000/svg">
<g id="Broken / Essentional, UI / Question Circle">
<path id="Broken" d="M10.625 8.875C10.625 7.83947 11.4645 7 12.5 7C13.5355 7 14.375 7.83947 14.375 8.875C14.375 9.56245 14.005 10.1635 13.4534 10.4899C12.978 10.7711 12.5 11.1977 12.5 11.75V13" stroke="white" stroke-width="1.6" stroke-linecap="round"/>
<circle id="Broken_2" cx="12.5" cy="16" r="1" fill="white"/>
<path id="Broken_3" d="M7.5 3.33782C8.97087 2.48697 10.6786 2 12.5 2C18.0228 2 22.5 6.47715 22.5 12C22.5 17.5228 18.0228 22 12.5 22C6.97715 22 2.5 17.5228 2.5 12C2.5 10.1786 2.98697 8.47087 3.83782 7" stroke="white" stroke-width="1.6" stroke-linecap="round"/>
</g>
</svg>
