<svg width="40" height="40" viewBox="0 0 40 40" fill="none" xmlns="http://www.w3.org/2000/svg">
<path fill-rule="evenodd" clip-rule="evenodd" d="M40 20C40 31.0457 31.0457 40 20 40C16.8006 40 13.7767 39.2488 11.0951 37.9131C10.3824 37.5581 9.56786 37.44 8.79877 37.6458L4.34669 38.837C2.41403 39.3541 0.645908 37.586 1.16302 35.6533L2.35424 31.2012C2.56002 30.4321 2.44187 29.6176 2.08692 28.9049C0.751232 26.2233 0 23.1994 0 20C0 8.9543 8.9543 0 20 0C31.0457 0 40 8.9543 40 20ZM11 18.2168C11 20.9536 13.6377 23.8252 16.0571 25.8835C17.7049 27.2852 18.5288 27.9861 20 27.9861C21.4713 27.9861 22.2951 27.2852 23.9429 25.8835C26.3623 23.8252 29 20.9537 29 18.2168C29 12.8625 24.0499 10.8634 20 14.9996C15.9501 10.8634 11 12.8625 11 18.2168Z" fill="#159747"/>
</svg>
