<svg width="28" height="28" viewBox="0 0 28 28" fill="none" xmlns="http://www.w3.org/2000/svg">
<path fill-rule="evenodd" clip-rule="evenodd" d="M14 28C21.732 28 28 21.732 28 14C28 6.26801 21.732 0 14 0C6.26801 0 0 6.26801 0 14C0 21.732 6.26801 28 14 28ZM20.1345 10.0062C20.5061 9.47983 20.3806 8.75188 19.8542 8.3803C19.3278 8.00873 18.5998 8.13423 18.2283 8.66063L12.4949 16.7828L9.62802 13.5064C9.20373 13.0214 8.46667 12.9723 7.98176 13.3966C7.49685 13.8209 7.44771 14.558 7.87201 15.0429L11.7151 19.435C11.9507 19.7042 12.2967 19.8505 12.6539 19.8318C13.0111 19.8132 13.34 19.6318 13.5463 19.3396L20.1345 10.0062Z" fill="#12B76A"/>
</svg>
