<svg width="43" height="42" viewBox="0 0 43 42" fill="none" xmlns="http://www.w3.org/2000/svg">
<path fill-rule="evenodd" clip-rule="evenodd" d="M4.5 7.04C5.35963 2.96376 8.9541 0.0448104 13.12 0.0400017L13.18 5.74666e-07C17.3169 -0.00148531 20.8962 2.87865 21.78 6.92H22C25.0376 6.92 27.5 9.38244 27.5 12.42V13.58H35.5C36.9374 13.6331 38.2957 14.2512 39.28 15.3L41.38 17.3C42.4163 18.3252 42.9996 19.7223 43 21.18V31.98C43 35.0176 40.5376 37.48 37.5 37.48H34.76C34.1189 39.5601 32.1966 40.9792 30.02 40.9792C27.8434 40.9792 25.9211 39.5601 25.28 37.48H15.66C15.5669 37.4894 15.4731 37.4894 15.38 37.48C14.8401 39.704 12.8486 41.2699 10.56 41.2699C8.2714 41.2699 6.27991 39.704 5.74 37.48H1.5C0.676076 37.4692 0.0107716 36.8039 0 35.98V14.42C0 9.04 2.5 7.46 4.5 7.04ZM30.02 33.58C31.0594 33.5864 31.9743 34.2666 32.28 35.26C32.3593 35.5183 32.481 35.7616 32.64 35.98C32.4774 36.1888 32.3553 36.4262 32.28 36.68C31.98 37.6775 31.0616 38.3603 30.02 38.3603C28.9784 38.3603 28.06 37.6775 27.76 36.68C27.6848 36.4262 27.5627 36.1888 27.4 35.98C27.559 35.7616 27.6807 35.5183 27.76 35.26C28.0657 34.2666 28.9806 33.5864 30.02 33.58ZM10.56 33.78C11.5739 33.7926 12.4705 34.441 12.8 35.4C12.8797 35.6397 13.0016 35.8632 13.16 36.06C13.0231 36.2757 12.9218 36.5121 12.86 36.76C12.6136 37.8317 11.6597 38.5912 10.56 38.5912C9.46033 38.5912 8.50639 37.8317 8.26001 36.76C8.20576 36.5096 8.10392 36.272 7.96001 36.06C8.10356 35.8466 8.22423 35.6187 8.32001 35.38C8.64948 34.421 9.54609 33.7726 10.56 33.76V33.78ZM13.12 14.68C9.9057 14.68 7.3 12.0743 7.3 8.86C7.3 5.6457 9.9057 3.04 13.12 3.04C16.3343 3.04 18.94 5.6457 18.94 8.86C18.94 10.4036 18.3268 11.8839 17.2354 12.9754C16.1439 14.0668 14.6636 14.68 13.12 14.68ZM21.84 9.9C21.3233 14.3276 17.5776 17.6695 13.12 17.68C8.78053 17.6615 5.09925 14.4891 4.44 10.2C3.7 10.62 3 11.68 3 14.42V34.48H5.5C5.61981 34.4704 5.74019 34.4704 5.86 34.48C6.54012 32.463 8.4314 31.1048 10.56 31.1048C12.6886 31.1048 14.5799 32.463 15.26 34.48C15.3932 34.4703 15.5268 34.4703 15.66 34.48H25.28C25.9211 32.3999 27.8434 30.9808 30.02 30.9808C32.1966 30.9808 34.1189 32.3999 34.76 34.48H37.5C38.179 34.475 38.8272 34.1961 39.2978 33.7067C39.7684 33.2173 40.0216 32.5586 40 31.88V23.38H31.5C30.6716 23.38 30 22.7084 30 21.88C30 21.0516 30.6716 20.38 31.5 20.38H39.9C39.7971 19.9799 39.5901 19.6142 39.3 19.32L37.2 17.32C36.7382 16.8445 36.1028 16.5774 35.44 16.58H27.44V25.08C27.44 25.9084 26.7684 26.58 25.94 26.58C25.1116 26.58 24.44 25.9084 24.44 25.08V12.42C24.4453 11.7535 24.1843 11.1125 23.7149 10.6393C23.2455 10.1661 22.6065 9.89998 21.94 9.9H21.84Z" fill="#159747"/>
<path d="M10.84 5.06C10.4423 5.06035 10.061 5.21862 9.78 5.5C9.49411 5.77858 9.33286 6.16083 9.33286 6.56C9.33286 6.95918 9.49411 7.34143 9.78 7.62L11.62 9.48V11.16C11.62 11.9884 12.2916 12.66 13.12 12.66C13.9484 12.66 14.62 11.9884 14.62 11.16V9.16C14.6284 8.52157 14.3755 7.90744 13.92 7.46L11.92 5.46C11.6343 5.18565 11.256 5.02862 10.86 5.02L10.84 5.06Z" fill="#159747"/>
</svg>
