<svg width="48" height="48" viewBox="0 0 48 48" fill="none" xmlns="http://www.w3.org/2000/svg">
<path fill-rule="evenodd" clip-rule="evenodd" d="M17.978 10.6156C20.3379 5.8109 25.2807 2.5 31 2.5C39.0081 2.5 45.5 8.99187 45.5 17C45.5 19.1442 45.0336 21.1835 44.1954 23.0187C43.9766 23.4976 43.934 23.95 44.0313 24.3135L44.286 25.2656C45.1015 28.3133 42.3133 31.1015 39.2656 30.286L38.3135 30.0313C38.043 29.9589 37.7232 29.9639 37.3799 30.0615C36.3597 38.755 28.9675 45.5 20 45.5C17.3001 45.5 14.739 44.8875 12.4518 43.7925C11.999 43.5758 11.5532 43.5318 11.1865 43.6299L8.7344 44.286C5.68674 45.1015 2.89855 42.3133 3.71399 39.2656L4.37008 36.8135C4.4682 36.4468 4.42423 36.001 4.20746 35.5482C3.11247 33.261 2.5 30.6999 2.5 28C2.5 19.0189 9.26546 11.6179 17.978 10.6156ZM21.47 10.5609C30.1196 11.2802 36.9828 18.2902 37.4721 27.0032C37.9971 26.9532 38.5428 26.9871 39.0889 27.1332L40.041 27.3879C40.8587 27.6067 41.6067 26.8587 41.388 26.041L41.1332 25.0889C40.8189 23.9143 41.0238 22.7416 41.4666 21.7722C42.1297 20.3204 42.5 18.7055 42.5 17C42.5 10.6487 37.3513 5.5 31 5.5C27.0362 5.5 23.5384 7.50567 21.47 10.5609ZM20 13.5C11.9919 13.5 5.5 19.9919 5.5 28C5.5 30.2421 6.00783 32.3614 6.91334 34.2528C7.38415 35.2362 7.58158 36.4175 7.26814 37.5889L6.61205 40.041C6.39327 40.8587 7.14132 41.6067 7.95899 41.388L10.4111 40.7319C11.5825 40.4184 12.7638 40.6158 13.7472 41.0867C15.6386 41.9922 17.7579 42.5 20 42.5C28.0081 42.5 34.5 36.0081 34.5 28C34.5 19.9919 28.0081 13.5 20 13.5Z" fill="white"/>
<path d="M15 28C15 29.1046 14.1046 30 13 30C11.8954 30 11 29.1046 11 28C11 26.8954 11.8954 26 13 26C14.1046 26 15 26.8954 15 28Z" fill="white"/>
<path d="M22 28C22 29.1046 21.1046 30 20 30C18.8954 30 18 29.1046 18 28C18 26.8954 18.8954 26 20 26C21.1046 26 22 26.8954 22 28Z" fill="white"/>
<path d="M29 28C29 29.1046 28.1046 30 27 30C25.8954 30 25 29.1046 25 28C25 26.8954 25.8954 26 27 26C28.1046 26 29 26.8954 29 28Z" fill="white"/>
</svg>
