<svg width="36" height="19" viewBox="0 0 36 19" fill="none" xmlns="http://www.w3.org/2000/svg">
<path fill-rule="evenodd" clip-rule="evenodd" d="M35.2381 0.101859C35.8756 0.375063 36.1709 1.11332 35.8977 1.75079L34.7434 1.25611C35.8977 1.75079 35.8978 1.7505 35.8977 1.75079L35.8965 1.75361L35.8947 1.75777L35.8893 1.77009L35.8715 1.8104C35.8564 1.84412 35.835 1.89136 35.8071 1.95111C35.7514 2.07058 35.6699 2.24023 35.562 2.45188C35.3462 2.87492 35.024 3.46744 34.5902 4.16363C33.8776 5.3073 32.8555 6.74418 31.4985 8.17164L33.1198 9.793C33.6102 10.2834 33.6102 11.0785 33.1198 11.569C32.6294 12.0594 31.8343 12.0594 31.3439 11.569L29.6685 9.89359C28.5639 10.819 27.2972 11.6876 25.861 12.4012L27.4241 14.8035C27.8023 15.3848 27.6377 16.1627 27.0564 16.541C26.4751 16.9193 25.6972 16.7546 25.3189 16.1733L23.4952 13.3706C22.1903 13.7967 20.7774 14.0863 19.2553 14.1901V17.1628C19.2553 17.8564 18.6931 18.4186 17.9995 18.4186C17.306 18.4186 16.7438 17.8564 16.7438 17.1628V14.1901C15.2686 14.0895 13.8959 13.8144 12.6246 13.4095L10.8262 16.1734C10.4479 16.7547 9.67003 16.9194 9.0887 16.5411C8.50737 16.1629 8.34275 15.385 8.72101 14.8036L10.2487 12.4557C8.80143 11.7489 7.52439 10.8841 6.41026 9.96001L4.80121 11.5691C4.31079 12.0595 3.51567 12.0595 3.02526 11.5691C2.53484 11.0786 2.53484 10.2835 3.02526 9.79311L4.57199 8.24637C3.19136 6.80692 2.15201 5.3526 1.42787 4.19411C0.987627 3.48981 0.660705 2.88972 0.44184 2.46115C0.332334 2.24672 0.249657 2.0748 0.193175 1.95372C0.164927 1.89317 0.143211 1.8453 0.127948 1.81114L0.109875 1.77031L0.104446 1.75784L0.102629 1.75363L0.101944 1.75204C0.101817 1.75174 0.101409 1.75079 1.25566 1.25611L0.101944 1.75204C-0.17126 1.11456 0.123506 0.375063 0.760983 0.101859C1.39794 -0.171121 2.1355 0.12347 2.40924 0.75986C2.40915 0.75964 2.40934 0.760079 2.40924 0.75986L2.41084 0.763528L2.42101 0.78649C2.43088 0.808584 2.44694 0.844059 2.46926 0.891899C2.51391 0.987607 2.58352 1.13263 2.67862 1.31886C2.86899 1.69161 3.1606 2.22771 3.55761 2.86286C4.35396 4.13686 5.5616 5.78883 7.20926 7.32006C8.65911 8.66747 10.4358 9.90861 12.5607 10.7261C14.1589 11.341 15.9659 11.721 17.9995 11.721C20.0787 11.721 21.9212 11.3238 23.5459 10.6843C25.658 9.85297 27.4226 8.60374 28.8608 7.25375C30.4842 5.73002 31.6741 4.09447 32.4586 2.8354C32.8497 2.20768 33.1371 1.67851 33.3246 1.31081C33.4183 1.12711 33.4868 0.98414 33.5308 0.889833C33.5528 0.842693 33.5686 0.807755 33.5783 0.786013L33.5883 0.763437L33.5892 0.761433C33.5891 0.761597 33.5892 0.761269 33.5892 0.761433M35.2381 0.101859C34.6008 -0.171275 33.8625 0.124296 33.5892 0.761433L35.2381 0.101859ZM2.40924 0.75986C2.40915 0.75964 2.40934 0.760079 2.40924 0.75986V0.75986Z" fill="#AEAEAE"/>
</svg>
