<svg width="48" height="48" viewBox="0 0 48 48" fill="none" xmlns="http://www.w3.org/2000/svg">
<path fill-rule="evenodd" clip-rule="evenodd" d="M4.5 24C4.5 13.2304 13.2304 4.5 24 4.5C34.7696 4.5 43.5 13.2304 43.5 24V29.5854C43.6564 29.5301 43.8247 29.5 44 29.5C44.8284 29.5 45.5 30.1716 45.5 31V35C45.5 35.8284 44.8284 36.5 44 36.5C43.8187 36.5 43.6449 36.4678 43.484 36.4089C43.473 36.8098 43.4545 37.1789 43.4231 37.5173C43.3424 38.3881 43.1682 39.1907 42.7377 39.9425C42.4514 40.4426 42.091 40.896 41.6682 41.2857C41.0273 41.8763 40.2846 42.212 39.4623 42.4613C38.6851 42.6968 37.72 42.8871 36.5769 43.1125L36.4283 43.1418C35.6478 43.2958 34.9389 43.4357 34.3491 43.4822C33.7142 43.5322 32.9987 43.4973 32.3131 43.1114C31.9071 42.883 31.5523 42.5759 31.2668 42.2106C30.7922 41.6035 30.6334 40.9104 30.5647 40.2723C30.4999 39.6707 30.4999 38.9288 30.5 38.0958V27.6233C30.4999 26.9155 30.4999 26.2797 30.5507 25.7575C30.605 25.2004 30.7294 24.5982 31.0961 24.0404C31.3983 23.5809 31.8031 23.1955 32.2823 22.9194C32.8725 22.5793 33.4876 22.5039 34.0431 22.5002C34.5564 22.4967 35.1726 22.5575 35.8445 22.6238L35.9847 22.6376C37.156 22.7531 38.1415 22.8502 38.9401 23.0084C39.4874 23.1168 40.0061 23.2639 40.4925 23.4971C40.2266 14.6171 32.9445 7.5 24 7.5C15.0555 7.5 7.77335 14.6171 7.50752 23.4971C7.99385 23.2639 8.51262 23.1168 9.05991 23.0084C9.85852 22.8502 10.844 22.7531 12.0153 22.6376L12.1555 22.6238C12.8274 22.5575 13.4436 22.4967 13.9569 22.5002C14.5124 22.5039 15.1275 22.5793 15.7177 22.9194C16.1969 23.1955 16.6017 23.5809 16.9039 24.0404C17.2706 24.5982 17.395 25.2004 17.4493 25.7575C17.5001 26.2797 17.5001 26.9155 17.5 27.6234V38.0958C17.5001 38.9288 17.5001 39.6707 17.4353 40.2723C17.3666 40.9104 17.2078 41.6035 16.7332 42.2106C16.4477 42.5759 16.0929 42.883 15.6869 43.1114C15.0013 43.4973 14.2858 43.5322 13.651 43.4822C13.0611 43.4357 12.3522 43.2958 11.5717 43.1418L11.4231 43.1125C10.28 42.8871 9.31489 42.6968 8.5377 42.4613C7.71538 42.212 6.97269 41.8763 6.3318 41.2857C5.90897 40.896 5.54864 40.4426 5.26226 39.9425C4.83178 39.1907 4.65758 38.3881 4.57689 37.5174C4.54553 37.1789 4.52696 36.8098 4.51596 36.4089C4.35508 36.4678 4.1813 36.5 4 36.5C3.17157 36.5 2.5 35.8284 2.5 35V31C2.5 30.1716 3.17157 29.5 4 29.5C4.17532 29.5 4.34361 29.5301 4.5 29.5854V24ZM7.5 34.3866C7.5 35.6898 7.5015 36.565 7.56409 37.2405C7.6244 37.8913 7.73217 38.2186 7.86564 38.4517C8.00144 38.6889 8.17027 38.9003 8.36483 39.0796C8.54868 39.2491 8.82027 39.4121 9.40796 39.5903C10.0247 39.7772 10.8415 39.94 12.0748 40.1833C12.958 40.3574 13.4925 40.4604 13.8867 40.4915C14.0992 40.5082 14.1961 40.4962 14.2284 40.4895C14.2783 40.4594 14.3258 40.4183 14.3673 40.3661C14.3796 40.3418 14.4217 40.2375 14.4526 39.951C14.4979 39.5297 14.5 38.9521 14.5 38.0207V27.6893C14.5 26.8947 14.4983 26.4073 14.4634 26.0483C14.439 25.7976 14.4052 25.7068 14.396 25.6869C14.3492 25.6162 14.2914 25.5621 14.23 25.5247C14.2036 25.5176 14.1212 25.5013 13.9365 25.5001C13.6008 25.4978 13.1447 25.5408 12.3811 25.6161C11.1196 25.7405 10.2808 25.8248 9.64281 25.9512C9.03138 26.0723 8.74784 26.2074 8.55727 26.351C8.27759 26.5617 8.03866 26.8334 7.85855 27.1519C7.72962 27.3799 7.6227 27.7083 7.56305 28.3696C7.50142 29.0529 7.5 29.9398 7.5 31.2552V34.3866ZM40.5 31.2552C40.5 29.9398 40.4986 29.0529 40.437 28.3696C40.3773 27.7083 40.2704 27.3799 40.1415 27.1519C39.9613 26.8335 39.7224 26.5617 39.4427 26.351C39.2522 26.2074 38.9686 26.0723 38.3572 25.9512C37.7192 25.8248 36.8804 25.7405 35.6189 25.6161C34.8553 25.5408 34.3992 25.4978 34.0635 25.5001C33.8788 25.5013 33.7963 25.5176 33.77 25.5247C33.7086 25.5621 33.6508 25.6162 33.604 25.6869C33.5948 25.7068 33.561 25.7976 33.5366 26.0483C33.5017 26.4073 33.5 26.8947 33.5 27.6893V38.0207C33.5 38.9521 33.5021 39.5297 33.5474 39.951C33.5783 40.2375 33.6204 40.3418 33.6327 40.3661C33.6742 40.4183 33.7217 40.4594 33.7716 40.4895C33.8039 40.4962 33.9008 40.5082 34.1133 40.4915C34.5075 40.4604 35.042 40.3574 35.9252 40.1833C37.1585 39.94 37.9753 39.7772 38.592 39.5903C39.1797 39.4121 39.4513 39.2491 39.6352 39.0796C39.8297 38.9003 39.9986 38.6889 40.1344 38.4517C40.2678 38.2186 40.3756 37.8913 40.4359 37.2405C40.4985 36.565 40.5 35.6898 40.5 34.3866V31.2552Z" fill="#383B45"/>
</svg>
