<svg width="32" height="29" viewBox="0 0 32 29" fill="none" xmlns="http://www.w3.org/2000/svg">
<path fill-rule="evenodd" clip-rule="evenodd" d="M31.9714 10.5121C31.9714 5.56705 29.767 1.8756 26.3369 0.532477C23.161 -0.711081 19.3492 0.219337 15.9857 3.36787C12.6222 0.219338 8.81042 -0.711081 5.63455 0.532484C2.20441 1.87562 0 5.56708 0 10.5121C0 13.6615 1.68096 16.7608 3.77306 19.429C5.88666 22.1247 8.54561 24.5385 10.7649 26.3395L10.9644 26.5015C12.7497 27.9524 14.0385 28.9998 15.9857 28.9998C17.9329 28.9998 19.2217 27.9524 21.0071 26.5015L21.2065 26.3395C23.4258 24.5385 26.0848 22.1248 28.1984 19.4291C30.2905 16.7608 31.9714 13.6615 31.9714 10.5121ZM16.8004 5.70724C19.9407 2.34866 23.1965 1.69829 25.5236 2.60949C27.8558 3.5227 29.7408 6.1928 29.7408 10.5121C29.7408 12.9083 28.4333 15.5144 26.443 18.0528C24.4743 20.5638 21.957 22.8579 19.801 24.6075C17.7302 26.2879 17.0607 26.7692 15.9857 26.7692C14.9108 26.7692 14.2412 26.2879 12.1704 24.6074C10.0144 22.8578 7.49716 20.5637 5.5284 18.0527C3.53813 15.5144 2.23056 12.9083 2.23056 10.5121C2.23056 6.19282 4.11563 3.52271 6.44784 2.60949C8.77492 1.69829 12.0308 2.34866 15.1711 5.70724C15.3819 5.93279 15.6769 6.06082 15.9857 6.06082C16.2945 6.06082 16.5895 5.93279 16.8004 5.70724Z" fill="#E01839"/>
</svg>
