<svg width="48" height="48" viewBox="0 0 48 48" fill="none" xmlns="http://www.w3.org/2000/svg">
<path fill-rule="evenodd" clip-rule="evenodd" d="M11.2487 8.84821C7.93074 10.3649 5.5 13.9723 5.5 18.274C5.5 22.6688 7.29843 26.0563 9.87657 28.9594C12.0014 31.352 14.5737 33.3351 17.0823 35.269C17.6781 35.7284 18.2703 36.185 18.8521 36.6436C19.9042 37.473 20.8426 38.2009 21.7472 38.7295C22.6523 39.2583 23.3808 39.4998 24 39.4998C24.6192 39.4998 25.3477 39.2583 26.2528 38.7295C27.1574 38.2009 28.0958 37.473 29.1479 36.6436C29.7297 36.185 30.3219 35.7284 30.9177 35.269C33.4263 33.3351 35.9986 31.352 38.1234 28.9594C40.7016 26.0563 42.5 22.6688 42.5 18.274C42.5 13.9723 40.0693 10.3649 36.7513 8.84821C33.5279 7.37478 29.1967 7.76498 25.0807 12.0413C24.798 12.3351 24.4078 12.5011 24 12.5011C23.5922 12.5011 23.202 12.3351 22.9193 12.0413C18.8033 7.76498 14.4721 7.37478 11.2487 8.84821ZM24 8.91745C19.3759 4.78031 14.1979 4.20156 10.0015 6.11974C5.56943 8.14567 2.5 12.8499 2.5 18.274C2.5 23.6051 4.72099 27.6719 7.63343 30.9514C9.96575 33.5777 12.8204 35.7757 15.3417 37.717C15.9132 38.157 16.4676 38.5839 16.9948 38.9996C18.0193 39.8072 19.1191 40.6684 20.2336 41.3197C21.3477 41.9707 22.6192 42.4998 24 42.4998C25.3808 42.4998 26.6523 41.9707 27.7664 41.3197C28.8809 40.6684 29.9807 39.8072 31.0052 38.9996C31.5324 38.5839 32.0868 38.157 32.6583 37.717C35.1796 35.7757 38.0343 33.5777 40.3666 30.9514C43.279 27.6719 45.5 23.6051 45.5 18.274C45.5 12.8499 42.4306 8.14567 37.9985 6.11974C33.8021 4.20156 28.6241 4.78031 24 8.91745Z" fill="#159747"/>
</svg>
