<svg width="25" height="24" viewBox="0 0 25 24" fill="none" xmlns="http://www.w3.org/2000/svg">
<path fill-rule="evenodd" clip-rule="evenodd" d="M8.79167 3C9.13685 3 9.41667 3.27982 9.41667 3.625V4.2606C9.96836 4.24999 10.5762 4.24999 11.2447 4.25H14.672C15.3405 4.24999 15.9483 4.24999 16.5 4.2606V3.625C16.5 3.27982 16.7798 3 17.125 3C17.4702 3 17.75 3.27982 17.75 3.625V4.31424C17.9666 4.33075 18.1718 4.35152 18.3659 4.37761C19.3429 4.50897 20.1337 4.78573 20.7573 5.40937C21.3809 6.033 21.6577 6.8238 21.7891 7.80081C21.831 8.11306 21.8592 8.45382 21.8781 8.82506C21.903 8.89255 21.9167 8.96551 21.9167 9.04167C21.9167 9.09944 21.9088 9.15537 21.8942 9.20847C21.9167 9.87678 21.9167 10.6356 21.9167 11.4947V13.2553C21.9167 14.7868 21.9167 15.9998 21.7891 16.9492C21.6577 17.9262 21.3809 18.717 20.7573 19.3406C20.1337 19.9643 19.3429 20.241 18.3659 20.3724C17.4165 20.5 16.2035 20.5 14.672 20.5H11.2447C9.71319 20.5 8.50016 20.5 7.55081 20.3724C6.5738 20.241 5.78301 19.9643 5.15937 19.3406C4.53573 18.717 4.25897 17.9262 4.12761 16.9492C3.99998 15.9998 3.99999 14.7868 4 13.2553V11.4947C3.99999 10.6356 3.99999 9.87679 4.02251 9.20847C4.00784 9.15537 4 9.09943 4 9.04167C4 8.96551 4.01362 8.89254 4.03856 8.82505C4.05746 8.45382 4.08563 8.11305 4.12761 7.80081C4.25897 6.8238 4.53573 6.033 5.15937 5.40937C5.78301 4.78573 6.5738 4.50897 7.55082 4.37761C7.74492 4.35152 7.95005 4.33075 8.16667 4.31424V3.625C8.16667 3.27982 8.44649 3 8.79167 3ZM5.2609 9.66667C5.25027 10.2106 5.25 10.83 5.25 11.5417V13.2083C5.25 14.7973 5.25133 15.9262 5.36647 16.7826C5.47919 17.621 5.69058 18.1041 6.04325 18.4567C6.39593 18.8094 6.87897 19.0208 7.71737 19.1335C8.57376 19.2487 9.70265 19.25 11.2917 19.25H14.625C16.214 19.25 17.3429 19.2487 18.1993 19.1335C19.0377 19.0208 19.5207 18.8094 19.8734 18.4567C20.2261 18.1041 20.4375 17.621 20.5502 16.7826C20.6653 15.9262 20.6667 14.7973 20.6667 13.2083V11.5417C20.6667 10.83 20.6664 10.2106 20.6558 9.66667H5.2609ZM20.5986 8.41667H5.31807C5.33142 8.25884 5.34738 8.10936 5.36647 7.96737C5.47919 7.12897 5.69058 6.64593 6.04325 6.29325C6.39593 5.94058 6.87897 5.72919 7.71737 5.61647C8.57376 5.50133 9.70265 5.5 11.2917 5.5H14.625C16.214 5.5 17.3429 5.50133 18.1993 5.61647C19.0377 5.72919 19.5207 5.94058 19.8734 6.29325C20.2261 6.64593 20.4375 7.12897 20.5502 7.96737C20.5693 8.10936 20.5853 8.25884 20.5986 8.41667Z" fill="#AEAEAE"/>
</svg>
