<svg width="20" height="20" viewBox="0 0 20 20" fill="none" xmlns="http://www.w3.org/2000/svg">
<g id="Outline / Messages, Conversation / Pen New Square">
<path id="Stroke" fill-rule="evenodd" clip-rule="evenodd" d="M9.95251 1.04175L11.2503 1.04175C11.5955 1.04175 11.8753 1.32157 11.8753 1.66675C11.8753 2.01193 11.5955 2.29175 11.2503 2.29175H10.0003C8.01847 2.29175 6.59495 2.29308 5.51164 2.43872C4.4463 2.58195 3.80404 2.85436 3.32932 3.32908C2.85461 3.80379 2.5822 4.44606 2.43897 5.5114C2.29332 6.59471 2.29199 8.01823 2.29199 10.0001C2.29199 11.9819 2.29332 13.4055 2.43897 14.4888C2.5822 15.5541 2.85461 16.1964 3.32932 16.6711C3.80404 17.1458 4.4463 17.4182 5.51164 17.5614C6.59495 17.7071 8.01847 17.7084 10.0003 17.7084C11.9822 17.7084 13.4057 17.7071 14.489 17.5614C15.5543 17.4182 16.1966 17.1458 16.6713 16.6711C17.146 16.1964 17.4185 15.5541 17.5617 14.4888C17.7073 13.4055 17.7087 11.9819 17.7087 10.0001V8.75008C17.7087 8.4049 17.9885 8.12508 18.3337 8.12508C18.6788 8.12508 18.9587 8.4049 18.9587 8.75008V10.0479C18.9587 11.9716 18.9587 13.4791 18.8005 14.6553C18.6387 15.8593 18.3009 16.8093 17.5552 17.555C16.8095 18.3006 15.8595 18.6384 14.6556 18.8003C13.4793 18.9584 11.9718 18.9584 10.0481 18.9584H9.95252C8.02885 18.9584 6.52132 18.9584 5.34508 18.8003C4.14113 18.6384 3.19111 18.3006 2.44544 17.555C1.69976 16.8093 1.36198 15.8593 1.20011 14.6553C1.04197 13.4791 1.04198 11.9716 1.04199 10.0479V9.95227C1.04198 8.0286 1.04197 6.52107 1.20011 5.34484C1.36198 4.14089 1.69976 3.19087 2.44544 2.4452C3.19111 1.69952 4.14113 1.36174 5.34508 1.19987C6.52132 1.04173 8.02885 1.04174 9.95251 1.04175ZM13.9758 1.89668C15.1157 0.756772 16.9638 0.756772 18.1037 1.89668C19.2436 3.03658 19.2436 4.88473 18.1037 6.02464L12.5636 11.5647C12.2542 11.8742 12.0604 12.068 11.8441 12.2367C11.5894 12.4354 11.3138 12.6058 11.0221 12.7448C10.7745 12.8628 10.5144 12.9494 10.0993 13.0878L7.67888 13.8946C7.232 14.0435 6.73933 13.9272 6.40625 13.5942C6.07318 13.2611 5.95687 12.7684 6.10583 12.3215L6.91263 9.90111C7.05098 9.48596 7.13765 9.22591 7.25566 8.97829C7.39465 8.68665 7.565 8.41101 7.7637 8.15626C7.9324 7.93997 8.12624 7.74615 8.4357 7.43674L13.9758 1.89668ZM17.2198 2.78056C16.5681 2.12881 15.5114 2.12881 14.8597 2.78056L14.5458 3.09441C14.5647 3.1743 14.5912 3.26947 14.628 3.37563C14.7474 3.71985 14.9734 4.17318 15.4003 4.60008C15.8272 5.02697 16.2806 5.25297 16.6248 5.37239C16.7309 5.40922 16.8261 5.43569 16.906 5.45461L17.2198 5.14076C17.8716 4.48901 17.8716 3.43231 17.2198 2.78056ZM15.9213 6.43932C15.4913 6.25441 14.9905 5.95796 14.5164 5.48396C14.0424 5.00995 13.746 4.5091 13.5611 4.07913L9.34825 8.29196C9.00115 8.63906 8.86503 8.77671 8.74934 8.92504C8.60647 9.1082 8.48399 9.30638 8.38406 9.51607C8.30313 9.68588 8.24089 9.86919 8.08566 10.3349L7.72575 11.4146L8.5858 12.2747L9.66554 11.9147C10.1312 11.7595 10.3145 11.6973 10.4843 11.6163C10.694 11.5164 10.8922 11.3939 11.0754 11.2511C11.2237 11.1354 11.3613 10.9993 11.7084 10.6522L15.9213 6.43932Z" fill="#159747"/>
</g>
</svg>
