<svg width="25" height="24" viewBox="0 0 25 24" fill="none" xmlns="http://www.w3.org/2000/svg">
<g clip-path="url(#clip0_11582_12298)">
<path fill-rule="evenodd" clip-rule="evenodd" d="M21.2378 17.6847C21.4091 17.8541 21.4107 18.1302 21.2414 18.3015L19.1977 20.3692C19.0284 20.5405 18.7522 20.5421 18.581 20.3728L16.5132 18.3291C16.3419 18.1598 16.3403 17.8836 16.5096 17.7123C16.6789 17.541 16.955 17.5394 17.1263 17.7087L18.4453 19.0124L18.4234 15.2667C17.2697 15.1748 16.1409 14.6909 15.2534 13.8136C13.2549 11.8384 13.2361 8.61701 15.2114 6.61854C17.1866 4.62007 20.408 4.60127 22.4065 6.57655C24.4049 8.55182 24.4237 11.7732 22.4485 13.7716C21.5712 14.6592 20.4481 15.1563 19.2956 15.2616L19.3175 19.0073L20.6211 17.6883C20.7904 17.517 21.0665 17.5154 21.2378 17.6847ZM21.8281 13.1585C23.4648 11.5026 23.4492 8.83352 21.7933 7.19687C20.1375 5.56021 17.4684 5.57579 15.8317 7.23166C14.195 8.88754 14.2106 11.5567 15.8665 13.1933C17.5224 14.83 20.1915 14.8144 21.8281 13.1585Z" fill="#AEAEAE"/>
<path fill-rule="evenodd" clip-rule="evenodd" d="M7.5 18.9535C9.94965 18.9535 11.9355 17.0012 11.9355 14.593C11.9355 12.1848 9.94979 10.2326 7.50016 10.2326C5.05049 10.2326 3.06452 12.1848 3.06452 14.593C3.06452 17.0012 5.05035 18.9535 7.5 18.9535ZM13 14.593C13 17.5792 10.5376 20 7.5 20C4.46243 20 2 17.5792 2 14.593C2 11.7833 4.18008 9.47422 6.9679 9.21104L6.9679 8.48837L5.72578 8.48837C5.43182 8.48837 5.19352 8.2541 5.19352 7.96512C5.19352 7.67613 5.43182 7.44186 5.72578 7.44186L6.96786 7.44186L6.96772 5.52329C6.9677 5.23431 7.20598 5.00002 7.49994 5C7.79389 4.99998 8.03221 5.23423 8.03223 5.52322L8.03238 7.44186H9.27417C9.56813 7.44186 9.80643 7.67613 9.80643 7.96512C9.80643 8.2541 9.56813 8.48837 9.27417 8.48837H8.03242L8.03242 9.21104C10.8202 9.47422 13 11.7834 13 14.593Z" fill="#AEAEAE"/>
</g>
<defs>
<clipPath id="clip0_11582_12298">
<rect width="24" height="24" fill="white" transform="translate(0.5)"/>
</clipPath>
</defs>
</svg>
