<svg width="10" height="10" viewBox="0 0 10 10" fill="none" xmlns="http://www.w3.org/2000/svg">
<g id="Broken / Map &#38; Location / Map Point" clip-path="url(#clip0_13036_2511)">
<path id="Stroke" d="M5.27588 3.05169C5.2149 3.04146 5.15226 3.03613 5.08838 3.03613C4.46706 3.03613 3.96338 3.53981 3.96338 4.16113C3.96338 4.78245 4.46706 5.28613 5.08838 5.28613C5.7097 5.28613 6.21338 4.78245 6.21338 4.16113C6.21338 4.09725 6.20805 4.03461 6.19782 3.97363" stroke="#383B45" stroke-width="0.917647" stroke-linecap="round"/>
<path id="Stroke_2" d="M2.46338 6.11717C2.22058 5.49696 2.08838 4.83663 2.08838 4.21487C2.08838 2.52834 3.43152 1.16113 5.08838 1.16113C6.74523 1.16113 8.08838 2.52834 8.08838 4.21487C8.08838 5.88818 7.13088 7.84079 5.63698 8.53905C5.28873 8.70183 4.88803 8.70183 4.53978 8.53905C4.06265 8.31604 3.64025 7.96508 3.28627 7.53613" stroke="#383B45" stroke-width="0.917647" stroke-linecap="round"/>
</g>
<defs>
<clipPath id="clip0_13036_2511">
<rect width="9" height="9" fill="white" transform="translate(0.588379 0.411133)"/>
</clipPath>
</defs>
</svg>
