<svg width="25" height="24" viewBox="0 0 25 24" fill="none" xmlns="http://www.w3.org/2000/svg">
<path fill-rule="evenodd" clip-rule="evenodd" d="M6.50745 3.40686C8.18752 1.72679 11.0227 1.85451 12.1925 3.95063L12.8415 5.11356C13.6054 6.48238 13.2799 8.20946 12.1616 9.34143C12.1467 9.36184 12.0677 9.47677 12.0579 9.67758C12.0454 9.93391 12.1364 10.5267 13.0548 11.4451C13.9729 12.3632 14.5656 12.4545 14.8221 12.442C15.0231 12.4322 15.1381 12.3533 15.1585 12.3383C16.2905 11.2201 18.0176 10.8945 19.3864 11.6584L20.5493 12.3075C22.6454 13.4773 22.7731 16.3124 21.0931 17.9925C20.1944 18.8911 18.9995 19.6896 17.5953 19.7429C15.5144 19.8218 12.0591 19.2844 8.63735 15.8626C5.21556 12.4408 4.67818 8.98556 4.75706 6.90463C4.8103 5.50044 5.60879 4.30552 6.50745 3.40686ZM10.8827 4.68163C10.2836 3.60828 8.67394 3.36169 7.56811 4.46752C6.79276 5.24287 6.2887 6.09868 6.25599 6.96146C6.1902 8.6968 6.61864 11.7226 9.69801 14.8019C12.7774 17.8813 15.8031 18.3097 17.5385 18.2439C18.4013 18.2112 19.2571 17.7072 20.0324 16.9318C21.1382 15.826 20.8916 14.2163 19.8183 13.6173L18.6554 12.9683C17.932 12.5645 16.9158 12.7023 16.2025 13.4156L16.2023 13.4158C16.1322 13.4858 15.6864 13.9018 14.895 13.9403C14.0847 13.9797 13.104 13.6156 11.9942 12.5058C10.884 11.3956 10.52 10.4146 10.5597 9.60423C10.5985 8.81271 11.0147 8.36711 11.0843 8.29746L11.0844 8.29743C11.7977 7.58411 11.9354 6.56797 11.5317 5.84456L10.8827 4.68163Z" fill="#AEAEAE"/>
</svg>
