<svg width="17" height="16" viewBox="0 0 17 16" fill="none" xmlns="http://www.w3.org/2000/svg">
<path d="M15.6225 7.72715C16.6583 6.66372 16.0571 4.87436 14.5893 4.65205L12.1305 4.27962C11.5278 4.18833 11.0106 3.80195 10.7521 3.24991L9.72239 1.05043C9.06677 -0.349927 7.07523 -0.349927 6.41962 1.05043L5.38987 3.24991C5.13142 3.80195 4.61422 4.18833 4.01155 4.27962L1.55266 4.65205C0.0849055 4.87436 -0.516272 6.66372 0.51951 7.72715L2.41598 9.67425C2.81897 10.088 3.00211 10.6682 2.90967 11.2383L2.4813 13.8805C2.23788 15.3818 3.83133 16.5038 5.16274 15.7685L7.18947 14.6491C7.7381 14.3461 8.4039 14.3461 8.95254 14.6491L10.9793 15.7685C12.3107 16.5038 13.9041 15.3818 13.6607 13.8805L13.2323 11.2383C13.1399 10.6682 13.323 10.088 13.726 9.67425L15.6225 7.72715Z" fill="#FFC400"/>
</svg>
