<svg width="36" height="36" viewBox="0 0 36 36" fill="none" xmlns="http://www.w3.org/2000/svg">
<path fill-rule="evenodd" clip-rule="evenodd" d="M6.69765 13.4836V11.3023C6.69765 5.0602 11.7578 0 17.9999 0C24.242 0 29.3022 5.0602 29.3022 11.3023V13.4836C29.682 13.5103 30.04 13.5451 30.3768 13.5904C31.8839 13.793 33.1529 14.2265 34.1608 15.2344C35.1686 16.2422 35.6021 17.5112 35.8047 19.0184C35.9999 20.47 35.9999 22.3158 35.9998 24.6057V24.7894C35.9999 27.0793 35.9999 28.9251 35.8047 30.3767C35.6021 31.8839 35.1686 33.1529 34.1608 34.1607C33.1529 35.1686 31.8839 35.6021 30.3768 35.8047C28.9251 35.9999 27.0794 35.9999 24.7894 35.9998H11.2104C8.92049 35.9999 7.07475 35.9999 5.62309 35.8047C4.11594 35.6021 2.84695 35.1686 1.83909 34.1607C0.831235 33.1529 0.397741 31.8839 0.19511 30.3767C-6.02184e-05 28.9251 -3.29458e-05 27.0794 8.8747e-07 24.7895V24.6057C-3.29458e-05 22.3158 -6.02184e-05 20.47 0.19511 19.0184C0.397741 17.5112 0.831235 16.2422 1.83909 15.2344C2.84695 14.2265 4.11594 13.793 5.62309 13.5904C5.95986 13.5451 6.31784 13.5103 6.69765 13.4836ZM9.20926 11.3023C9.20926 6.44733 13.145 2.51162 17.9999 2.51162C22.8549 2.51162 26.7906 6.44733 26.7906 11.3023V13.4011C26.1651 13.3953 25.4986 13.3953 24.7894 13.3953H11.2104C10.5012 13.3953 9.8347 13.3953 9.20926 13.4011V11.3023ZM3.61507 17.0104C4.07849 16.5469 4.72912 16.2448 5.95776 16.0796C7.22253 15.9096 8.8988 15.9069 11.3023 15.9069H24.6976C27.101 15.9069 28.7773 15.9096 30.0421 16.0796C31.2707 16.2448 31.9214 16.5469 32.3848 17.0104C32.8482 17.4738 33.1503 18.1244 33.3155 19.353C33.4856 20.6178 33.4882 22.2941 33.4882 24.6976C33.4882 27.101 33.4856 28.7773 33.3155 30.0421C33.1503 31.2707 32.8482 31.9214 32.3848 32.3848C31.9214 32.8482 31.2707 33.1503 30.0421 33.3155C28.7773 33.4856 27.101 33.4882 24.6976 33.4882H11.3023C8.8988 33.4882 7.22253 33.4856 5.95776 33.3155C4.72912 33.1503 4.07849 32.8482 3.61507 32.3848C3.15166 31.9214 2.84952 31.2707 2.68433 30.0421C2.51429 28.7773 2.51162 27.101 2.51162 24.6976C2.51162 22.2941 2.51429 20.6178 2.68433 19.353C2.84952 18.1244 3.15166 17.4738 3.61507 17.0104Z" fill="#AEAEAE"/>
</svg>
