<svg width="35" height="35" viewBox="0 0 35 35" fill="none" xmlns="http://www.w3.org/2000/svg">
<path fill-rule="evenodd" clip-rule="evenodd" d="M3.51519 2.31098C6.87561 -1.04944 12.5464 -0.79398 14.8862 3.39862L16.1843 5.72467C17.7123 8.46254 17.0612 11.917 14.8244 14.1811C14.7946 14.2219 14.6367 14.4518 14.617 14.8535C14.5919 15.3662 14.774 16.5518 16.611 18.3888C18.4474 20.2252 19.6329 20.4078 20.1458 20.3828C20.5478 20.3633 20.7779 20.2053 20.8188 20.1755C23.0829 17.9387 26.5373 17.2876 29.2752 18.8155L31.6012 20.1137C35.7938 22.4535 36.0493 28.1242 32.6889 31.4847C30.8914 33.2821 28.5014 34.8793 25.6927 34.9857C21.5305 35.1435 14.6195 34.0687 7.77535 27.2245C0.931205 20.3804 -0.143658 13.4693 0.0141302 9.30712C0.120605 6.49848 1.71773 4.10845 3.51519 2.31098ZM12.2663 4.86073C11.0682 2.71386 7.84854 2.22063 5.63669 4.43248C4.08587 5.9833 3.07765 7.69508 3.01223 9.42077C2.88064 12.8917 3.73759 18.9438 9.89684 25.103C16.0561 31.2623 22.1081 32.1192 25.5791 31.9876C27.3048 31.9222 29.0166 30.914 30.5674 29.3632C32.7792 27.1513 32.286 23.9317 30.1391 22.7335L27.8131 21.4354C26.3662 20.6279 24.3337 20.9033 22.907 22.33L22.9065 22.3305C22.7664 22.4705 21.8747 23.3025 20.2916 23.3795C18.671 23.4584 16.7094 22.7302 14.4895 20.5103C12.2689 18.2897 11.541 16.3276 11.6204 14.7068C11.6979 13.1236 12.5304 12.2323 12.6697 12.093L12.6698 12.0929C14.0965 10.6662 14.372 8.63373 13.5645 7.18678L12.2663 4.86073Z" fill="#AEAEAE"/>
</svg>
