<svg width="29" height="29" viewBox="0 0 29 29" fill="none" xmlns="http://www.w3.org/2000/svg">
<path d="M13.412 1.04141L3.09891 3.09891L1.04141 13.412C1.00917 13.5766 1.01795 13.7467 1.06699 13.9072C1.11602 14.0676 1.20379 14.2136 1.32256 14.3321L14.6644 27.6739C14.7584 27.7701 14.8707 27.8466 14.9947 27.8988C15.1187 27.951 15.2519 27.9779 15.3864 27.9779C15.5209 27.9779 15.6541 27.951 15.7781 27.8988C15.9021 27.8466 16.0144 27.7701 16.1085 27.6739L27.6739 16.1085C27.7701 16.0144 27.8466 15.9021 27.8988 15.7781C27.951 15.6541 27.9779 15.5209 27.9779 15.3864C27.9779 15.2519 27.951 15.1187 27.8988 14.9947C27.8466 14.8707 27.7701 14.7584 27.6739 14.6644L14.3321 1.32256C14.2136 1.20379 14.0676 1.11602 13.9072 1.06699C13.7467 1.01795 13.5766 1.00917 13.412 1.04141V1.04141Z" stroke="#E01839" stroke-linecap="round" stroke-linejoin="round"/>
</svg>
