<svg width="24" height="24" viewBox="0 0 24 24" fill="none" xmlns="http://www.w3.org/2000/svg">
<path fill-rule="evenodd" clip-rule="evenodd" d="M21.0186 3.84692C21.5708 3.84692 22.0186 4.29464 22.0186 4.84692V9.34692C22.0186 9.89921 21.5708 10.3469 21.0186 10.3469H16.5186C15.9663 10.3469 15.5186 9.89921 15.5186 9.34692C15.5186 8.79464 15.9663 8.34692 16.5186 8.34692H20.0186V4.84692C20.0186 4.29464 20.4663 3.84692 21.0186 3.84692Z" fill="#159747"/>
<path fill-rule="evenodd" clip-rule="evenodd" d="M13.4117 4.88974C12.0052 4.60952 10.5471 4.75275 9.22203 5.30131C7.89692 5.84987 6.76428 6.77912 5.96737 7.97151C5.17047 9.16389 4.74512 10.5658 4.74512 12C4.74512 13.4342 5.17047 14.8361 5.96737 16.0285C6.76428 17.2209 7.89692 18.1501 9.22203 18.6987C10.5471 19.2473 12.0052 19.3905 13.4117 19.1103C14.8182 18.83 16.11 18.139 17.1237 17.1244C17.5141 16.7338 18.1473 16.7335 18.5379 17.1239C18.9286 17.5142 18.9289 18.1474 18.5385 18.5381C17.2452 19.8325 15.597 20.7142 13.8025 21.0717C12.0079 21.4292 10.1477 21.2465 8.45704 20.5466C6.76638 19.8467 5.32128 18.6611 4.30455 17.1398C3.28781 15.6185 2.74512 13.8298 2.74512 12C2.74512 10.1702 3.28781 8.38151 4.30455 6.8602C5.32128 5.33888 6.76638 4.15329 8.45704 3.4534C10.1477 2.75351 12.0079 2.57077 13.8025 2.92829C15.5967 3.28575 17.2445 4.16719 18.5377 5.46116C18.538 5.46142 18.5383 5.46168 18.5385 5.46194L21.7247 8.63873C22.1158 9.02868 22.1167 9.66184 21.7268 10.0529C21.3368 10.444 20.7037 10.445 20.3126 10.055L17.1251 6.8769L17.1237 6.87557C16.11 5.86105 14.8182 5.16997 13.4117 4.88974Z" fill="#159747"/>
</svg>
