<svg width="36" height="36" viewBox="0 0 36 36" fill="none" xmlns="http://www.w3.org/2000/svg">
<path fill-rule="evenodd" clip-rule="evenodd" d="M17.1625 2.51158C9.07101 2.51158 2.51158 9.07101 2.51158 17.1625C2.51158 25.2539 9.07101 31.8134 17.1625 31.8134C25.2539 31.8134 31.8134 25.2539 31.8134 17.1625C31.8134 9.07101 25.2539 2.51158 17.1625 2.51158ZM0 17.1625C0 7.6839 7.6839 0 17.1625 0C26.6411 0 34.325 7.6839 34.325 17.1625C34.325 21.4498 32.7529 25.3699 30.1538 28.3779L35.6315 33.8556C36.1219 34.346 36.1219 35.1411 35.6315 35.6315C35.1411 36.1219 34.346 36.1219 33.8556 35.6315L28.3779 30.1538C25.3699 32.7529 21.4498 34.325 17.1625 34.325C7.6839 34.325 0 26.6411 0 17.1625Z" fill="#AEAEAE"/>
</svg>
