<svg width="48" height="48" viewBox="0 0 48 48" fill="none" xmlns="http://www.w3.org/2000/svg">
<path fill-rule="evenodd" clip-rule="evenodd" d="M24 16.5C19.8579 16.5 16.5 19.8579 16.5 24C16.5 28.1421 19.8579 31.5 24 31.5C28.1421 31.5 31.5 28.1421 31.5 24C31.5 19.8579 28.1421 16.5 24 16.5ZM19.5 24C19.5 21.5147 21.5147 19.5 24 19.5C26.4853 19.5 28.5 21.5147 28.5 24C28.5 26.4853 26.4853 28.5 24 28.5C21.5147 28.5 19.5 26.4853 19.5 24Z" fill="white"/>
<path fill-rule="evenodd" clip-rule="evenodd" d="M23.9495 2.5C23.0606 2.49999 22.3185 2.49997 21.7093 2.54154C21.0751 2.58481 20.476 2.6781 19.8952 2.91866C18.5476 3.47688 17.4769 4.54759 16.9186 5.89524C16.628 6.59683 16.5493 7.33623 16.5193 8.13993C16.4951 8.78598 16.1691 9.32502 15.6879 9.60282C15.2067 9.88062 14.5769 9.89346 14.0053 9.59136C13.2943 9.21554 12.6146 8.91399 11.8617 8.81487C10.4155 8.62447 8.95284 9.01638 7.79558 9.90437C7.29686 10.2871 6.91654 10.7592 6.56197 11.2868C6.22136 11.7936 5.85033 12.4363 5.40588 13.2061L5.35537 13.2936C4.9109 14.0634 4.53985 14.7061 4.27124 15.2545C3.99162 15.8253 3.77288 16.3908 3.69083 17.014C3.50043 18.4602 3.89233 19.9228 4.78033 21.0801C5.24256 21.6825 5.84346 22.1203 6.52434 22.5481C7.0719 22.8922 7.37576 23.4442 7.37573 24C7.37569 24.5557 7.07184 25.1076 6.52435 25.4516C5.84338 25.8795 5.24241 26.3173 4.78013 26.9198C3.89214 28.077 3.50023 29.5396 3.69063 30.9858C3.77268 31.6091 3.99142 32.1745 4.27105 32.7454C4.53966 33.2938 4.9107 33.9364 5.35516 34.7062L5.40568 34.7937C5.85013 35.5636 6.22116 36.2062 6.56177 36.7131C6.91635 37.2407 7.29666 37.7128 7.79539 38.0955C8.95265 38.9835 10.4153 39.3754 11.8615 39.185C12.6143 39.0859 13.294 38.7844 14.005 38.4086C14.5767 38.1064 15.2066 38.1193 15.6878 38.3971C16.169 38.6749 16.4951 39.2141 16.5193 39.8602C16.5493 40.6638 16.6281 41.4032 16.9186 42.1048C17.4769 43.4524 18.5476 44.5231 19.8952 45.0813C20.476 45.3219 21.0751 45.4152 21.7093 45.4585C22.3185 45.5 23.0605 45.5 23.9495 45.5H24.0505C24.9394 45.5 25.6815 45.5 26.2907 45.4585C26.9249 45.4152 27.524 45.3219 28.1047 45.0813C29.4524 44.5231 30.5231 43.4524 31.0813 42.1048C31.3719 41.4031 31.4506 40.6637 31.4807 39.86C31.5048 39.214 31.8309 38.6749 32.312 38.3971C32.7932 38.1192 33.4232 38.1063 33.9948 38.4085C34.7058 38.7842 35.3855 39.0857 36.1383 39.1849C37.5845 39.3753 39.0471 38.9833 40.2044 38.0954C40.7031 37.7127 41.0834 37.2405 41.438 36.7129C41.7786 36.2061 42.1496 35.5635 42.594 34.7937L42.6446 34.7062C43.089 33.9364 43.4601 33.2936 43.7287 32.7453C44.0084 32.1744 44.2271 31.609 44.3091 30.9857C44.4995 29.5395 44.1076 28.0769 43.2196 26.9196C42.7574 26.3172 42.1564 25.8794 41.4755 25.4515C40.928 25.1075 40.6242 24.5556 40.6242 23.9999C40.6243 23.4443 40.9281 22.8924 41.4755 22.5485C42.1565 22.1206 42.7575 21.6827 43.2198 21.0802C44.1078 19.923 44.4997 18.4604 44.3093 17.0142C44.2273 16.3909 44.0085 15.8255 43.7289 15.2546C43.4603 14.7063 43.0893 14.0637 42.6449 13.2939L42.5943 13.2064C42.1499 12.4365 41.7788 11.7938 41.4382 11.2869C41.0836 10.7593 40.7033 10.2872 40.2046 9.90451C39.0473 9.01651 37.5847 8.62461 36.1385 8.815C35.3856 8.91412 34.706 9.21564 33.995 9.59143C33.4233 9.89357 32.7934 9.88072 32.3122 9.60289C31.8309 9.32505 31.5048 8.78595 31.4807 8.13981C31.4506 7.33617 31.3719 6.5968 31.0813 5.89524C30.5231 4.54759 29.4524 3.47688 28.1047 2.91866C27.524 2.6781 26.9249 2.58481 26.2907 2.54154C25.6815 2.49997 24.9394 2.49999 24.0505 2.5H23.9495ZM21.0433 5.6903C21.1976 5.62639 21.432 5.56743 21.9135 5.53458C22.4084 5.50081 23.0476 5.5 24 5.5C24.9524 5.5 25.5916 5.50081 26.0865 5.53458C26.568 5.56743 26.8024 5.62639 26.9567 5.6903C27.5693 5.94404 28.0559 6.43072 28.3097 7.04329C28.3897 7.23652 28.4561 7.53774 28.4828 8.25194C28.542 9.8367 29.36 11.3626 30.8122 12.201C32.2643 13.0394 33.9947 12.9848 35.3968 12.2438C36.0287 11.9098 36.3227 11.8166 36.5301 11.7893C37.1874 11.7028 37.8523 11.8809 38.3783 12.2846C38.5108 12.3862 38.6791 12.5598 38.9482 12.9603C39.225 13.3721 39.5452 13.9252 40.0215 14.75C40.4977 15.5748 40.8165 16.1288 41.0348 16.5743C41.247 17.0076 41.3132 17.2401 41.335 17.4057C41.4215 18.0631 41.2434 18.7279 40.8398 19.254C40.7124 19.4199 40.4847 19.628 39.8795 20.0083C38.5367 20.8519 37.6243 22.3231 37.6242 23.9997C37.6242 25.6766 38.5366 27.148 39.8794 27.9917C40.4846 28.3719 40.7123 28.58 40.8396 28.7459C41.2432 29.2719 41.4214 29.9368 41.3348 30.5941C41.313 30.7597 41.2468 30.9922 41.0346 31.4256C40.8164 31.8711 40.4975 32.4251 40.0213 33.2499C39.5451 34.0747 39.2248 34.6278 38.9481 35.0396C38.6789 35.4401 38.5106 35.6136 38.3781 35.7153C37.8521 36.1189 37.1872 36.2971 36.5299 36.2105C36.3225 36.1832 36.0285 36.0901 35.3967 35.7561C33.9945 35.0151 32.264 34.9606 30.8119 35.7991C29.3599 36.6375 28.542 38.1633 28.4828 39.7479C28.4561 40.4622 28.3897 40.7635 28.3097 40.9567C28.0559 41.5693 27.5693 42.056 26.9567 42.3097C26.8024 42.3736 26.568 42.4326 26.0865 42.4654C25.5916 42.4992 24.9524 42.5 24 42.5C23.0476 42.5 22.4084 42.4992 21.9135 42.4654C21.432 42.4326 21.1976 42.3736 21.0433 42.3097C20.4307 42.056 19.944 41.5693 19.6903 40.9567C19.6102 40.7635 19.5439 40.4623 19.5172 39.7481C19.4579 38.1633 18.6399 36.6374 17.1878 35.799C15.7357 34.9607 14.0052 35.0152 12.6032 35.7562C11.9713 36.0902 11.6773 36.1834 11.4699 36.2107C10.8125 36.2972 10.1477 36.1191 9.62167 35.7154C9.48917 35.6138 9.32089 35.4402 9.05172 35.0397C8.77501 34.628 8.45472 34.0748 7.97851 33.25C7.50231 32.4252 7.18342 31.8712 6.9652 31.4257C6.75292 30.9924 6.68676 30.7599 6.66496 30.5943C6.57842 29.9369 6.75656 29.2721 7.16019 28.746C7.28752 28.5801 7.51522 28.372 8.1204 27.9918C9.46317 27.1481 10.3756 25.6769 10.3757 24.0001C10.3758 22.3232 9.46331 20.8517 8.12042 20.008C7.51537 19.6278 7.2877 19.4197 7.16039 19.2538C6.75675 18.7278 6.57862 18.063 6.66516 17.4056C6.68696 17.24 6.75312 17.0075 6.9654 16.5741C7.18362 16.1286 7.50251 15.5747 7.97871 14.7499C8.45491 13.9251 8.77521 13.3719 9.05191 12.9602C9.32109 12.5597 9.48936 12.3861 9.62187 12.2844C10.1479 11.8808 10.8127 11.7027 11.4701 11.7892C11.6775 11.8165 11.9715 11.9097 12.6035 12.2437C14.0055 12.9847 15.7358 13.0392 17.1879 12.2009C18.64 11.3626 19.4579 9.83674 19.5172 8.25204C19.5439 7.53777 19.6102 7.23653 19.6903 7.04329C19.944 6.43072 20.4307 5.94404 21.0433 5.6903Z" fill="white"/>
</svg>
