<svg width="28" height="28" viewBox="0 0 28 28" fill="none" xmlns="http://www.w3.org/2000/svg">
<g clip-path="url(#clip0_11422_11742)">
<path fill-rule="evenodd" clip-rule="evenodd" d="M8.67416 1.45825C8.0092 1.45823 7.44459 1.45821 6.97801 1.50645C6.48123 1.55782 6.02212 1.66935 5.58838 1.93742C5.15465 2.20548 4.84957 2.56624 4.58146 2.98761C4.32965 3.38336 4.07718 3.88834 3.77981 4.48312L3.76057 4.52161C3.74922 4.5443 3.73887 4.56747 3.72954 4.59105L2.09199 8.73055C1.89714 9.22311 1.68121 9.83759 1.61807 10.4664C1.55348 11.1096 1.64212 11.8464 2.14607 12.4855C2.73211 13.2286 3.64341 13.7083 4.66626 13.7083C5.58561 13.7083 6.41464 13.3216 6.99959 12.702C7.58454 13.3216 8.41357 13.7083 9.33292 13.7083C10.2523 13.7083 11.0813 13.3216 11.6663 12.702C12.2512 13.3216 13.0802 13.7083 13.9996 13.7083C14.9189 13.7083 15.748 13.3216 16.3329 12.702C16.9179 13.3216 17.7469 13.7083 18.6663 13.7083C19.5856 13.7083 20.4146 13.3216 20.9996 12.702C21.5845 13.3216 22.4136 13.7083 23.3329 13.7083C24.3558 13.7083 25.2671 13.2286 25.8532 12.4855C26.3571 11.8464 26.4458 11.1096 26.3812 10.4664C26.3181 9.8376 26.1021 9.22311 25.9073 8.73055L24.2697 4.59105C24.2604 4.56747 24.2501 4.5443 24.2387 4.52161L24.2195 4.48319C23.9221 3.88838 23.6696 3.38337 23.4178 2.98761C23.1497 2.56624 22.8446 2.20548 22.4109 1.93742C21.9772 1.66935 21.518 1.55782 21.0213 1.50645C20.5547 1.45821 19.9901 1.45823 19.3252 1.45825H8.67416ZM9.33292 11.9583C8.52751 11.9583 7.87459 11.3053 7.87459 10.4999C7.87459 10.0167 7.48284 9.62492 6.99959 9.62492C6.51634 9.62492 6.12459 10.0167 6.12459 10.4999C6.12459 11.3053 5.47167 11.9583 4.66626 11.9583C4.20197 11.9583 3.78868 11.7423 3.52021 11.4018C3.3873 11.2333 3.32302 11.0027 3.35931 10.6413C3.39705 10.2655 3.5358 9.83813 3.71929 9.3743L5.34283 5.2702C5.65517 4.64563 5.8639 4.23199 6.05792 3.92706C6.24456 3.63373 6.37829 3.50647 6.50841 3.42606C6.63853 3.34564 6.81217 3.28293 7.15799 3.24718C7.52399 3.20933 7.99758 3.20825 8.71718 3.20825H19.2821C20.0017 3.20825 20.4753 3.20933 20.8413 3.24718C21.1871 3.28293 21.3607 3.34564 21.4909 3.42606C21.621 3.50647 21.7547 3.63374 21.9414 3.92706C22.1354 4.23199 22.3441 4.64563 22.6565 5.27021L24.28 9.3743C24.4635 9.83813 24.6022 10.2655 24.64 10.6412C24.6763 11.0027 24.612 11.2333 24.4791 11.4018C24.2106 11.7423 23.7972 11.9583 23.3329 11.9583C22.5275 11.9583 21.8746 11.3053 21.8746 10.4999C21.8746 10.0167 21.4828 9.62492 20.9996 9.62492C20.5163 9.62492 20.1246 10.0167 20.1246 10.4999C20.1246 11.3053 19.4717 11.9583 18.6663 11.9583C17.8608 11.9583 17.2079 11.3053 17.2079 10.4999C17.2079 10.0167 16.8162 9.62492 16.3329 9.62492C15.8497 9.62492 15.4579 10.0167 15.4579 10.4999C15.4579 11.3053 14.805 11.9583 13.9996 11.9583C13.1942 11.9583 12.5413 11.3053 12.5413 10.4999C12.5413 10.0167 12.1495 9.62492 11.6663 9.62492C11.183 9.62492 10.7913 10.0167 10.7913 10.4999C10.7913 11.3053 10.1383 11.9583 9.33292 11.9583Z" fill="#159747"/>
<path d="M23.0414 17.4999C23.0414 17.0167 22.6496 16.6249 22.1664 16.6249C21.6831 16.6249 21.2914 17.0167 21.2914 17.4999V24.7916H6.70803V17.4999C6.70803 17.0167 6.31627 16.6249 5.83302 16.6249C5.34978 16.6249 4.95802 17.0167 4.95802 17.4999V24.7916H3.49969C3.01644 24.7916 2.62469 25.1833 2.62469 25.6666C2.62469 26.1498 3.01644 26.5416 3.49969 26.5416H24.4997C24.9829 26.5416 25.3747 26.1498 25.3747 25.6666C25.3747 25.1833 24.9829 24.7916 24.4997 24.7916H23.0414V17.4999Z" fill="#159747"/>
</g>
<defs>
<clipPath id="clip0_11422_11742">
<rect width="14" height="14" fill="white" transform="scale(2)"/>
</clipPath>
</defs>
</svg>
