<svg width="27" height="27" viewBox="0 0 27 27" fill="none" xmlns="http://www.w3.org/2000/svg">
<path d="M9.65674 4.60129C11.3667 1.53376 12.2217 0 13.5 0C14.7782 0 15.6332 1.53376 17.3432 4.60129L17.7856 5.3949C18.2715 6.26659 18.5144 6.70244 18.8933 6.99002C19.2721 7.27759 19.7439 7.38434 20.6875 7.59784L21.5466 7.79221C24.8671 8.54352 26.5274 8.91918 26.9224 10.1894C27.3174 11.4596 26.1855 12.7832 23.9218 15.4304L23.3361 16.1152C22.6929 16.8674 22.3712 17.2436 22.2265 17.7089C22.0818 18.1742 22.1304 18.676 22.2277 19.6796L22.3162 20.5934C22.6585 24.1252 22.8296 25.8912 21.7955 26.6762C20.7614 27.4613 19.2068 26.7455 16.0978 25.314L15.2934 24.9437C14.41 24.5369 13.9682 24.3335 13.5 24.3335C13.0317 24.3335 12.59 24.5369 11.7065 24.9437L10.9021 25.314C7.79309 26.7455 6.23857 27.4613 5.20443 26.6762C4.1703 25.8912 4.34142 24.1252 4.68367 20.5934L4.77221 19.6796C4.86947 18.676 4.9181 18.1742 4.7734 17.7089C4.6287 17.2436 4.30706 16.8674 3.66378 16.1152L3.07812 15.4304C0.814384 12.7832 -0.317486 11.4596 0.0775181 10.1894C0.472522 8.91918 2.1328 8.54352 5.45336 7.79222L6.31243 7.59784C7.25603 7.38434 7.72783 7.27759 8.10665 6.99002C8.48547 6.70244 8.72843 6.26659 9.21435 5.3949L9.65674 4.60129Z" fill="#FCBA27"/>
</svg>
