<svg width="25" height="24" viewBox="0 0 25 24" fill="none" xmlns="http://www.w3.org/2000/svg">
<path fill-rule="evenodd" clip-rule="evenodd" d="M2.25 5.375C2.73325 5.375 3.125 5.76675 3.125 6.25L3.125 16.9194C3.125 17.1445 3.24964 17.4967 4.23241 18.0865C5.18775 18.6597 6.6493 19.2795 8.71926 20.1539C9.71594 20.5749 10.346 20.8351 10.825 20.9789L10.825 10.8226C10.825 10.3393 11.2167 9.94758 11.7 9.94758C12.1832 9.94758 12.575 10.3393 12.575 10.8226L12.575 22C12.575 22.2321 12.4828 22.4546 12.3187 22.6187C12.1546 22.7828 11.9321 22.875 11.7 22.875C10.6612 22.875 9.68484 22.4622 8.20692 21.8372C8.15143 21.8138 8.09522 21.79 8.03828 21.766L7.96646 21.7356C5.98431 20.8983 4.40662 20.2319 3.33197 19.587C2.27182 18.9509 1.375 18.1459 1.375 16.9194L1.375 6.25C1.375 5.76675 1.76675 5.375 2.25 5.375ZM21.15 5.375C21.6332 5.375 22.025 5.76675 22.025 6.25V11.5C22.025 11.9832 21.6332 12.375 21.15 12.375C20.6667 12.375 20.275 11.9832 20.275 11.5V6.25C20.275 5.76675 20.6667 5.375 21.15 5.375Z" fill="#159747"/>
<path fill-rule="evenodd" clip-rule="evenodd" d="M23.0117 14.3218C23.193 14.7698 22.9768 15.2799 22.5289 15.4612C22.0411 15.6587 21.471 16.0874 20.8643 16.6955C20.2687 17.2924 19.6901 18.0086 19.1783 18.7098C18.6682 19.4086 18.235 20.0779 17.9291 20.5732C17.7764 20.8204 17.6561 21.0232 17.5745 21.1631C17.5337 21.2331 17.5027 21.2873 17.4821 21.3234L17.4593 21.3638L17.454 21.3732L17.4529 21.3752L17.4529 21.3753L17.4528 21.3754C17.2911 21.666 16.9787 21.8399 16.6466 21.8241C16.3143 21.8084 16.0198 21.6056 15.8864 21.3009C15.4681 20.3446 15.0886 19.9565 14.8945 19.8086C14.8211 19.7527 14.7708 19.7284 14.7489 19.7193C14.3136 19.6689 13.9756 19.299 13.9756 18.8501C13.9756 18.3669 14.3673 17.9751 14.8506 17.9751V18.8501C14.8506 17.9751 14.8516 17.9751 14.8526 17.9751L14.8545 17.9751L14.8586 17.9752L14.867 17.9753L14.885 17.9758C14.8975 17.9762 14.911 17.9769 14.9255 17.978C14.9545 17.9802 14.9873 17.9837 15.0237 17.9892C15.0966 18.0003 15.1829 18.0194 15.2801 18.0512C15.4761 18.1152 15.7067 18.2274 15.9551 18.4166C16.2012 18.6042 16.4583 18.8621 16.7161 19.2147C17.0049 18.7634 17.3614 18.2307 17.7648 17.678C18.3068 16.9354 18.9442 16.1423 19.6254 15.4595C20.2955 14.7879 21.0631 14.1666 21.8723 13.8391C22.3202 13.6577 22.8304 13.8739 23.0117 14.3218Z" fill="#159747"/>
<path fill-rule="evenodd" clip-rule="evenodd" d="M11.7 1.875C10.9293 1.875 10.1921 2.209 8.22334 3.16168L5.15608 4.6459C4.28791 5.06599 3.72681 5.33998 3.37101 5.58031C3.2809 5.64118 3.22018 5.68921 3.17987 5.725C3.22018 5.76079 3.2809 5.80882 3.37101 5.86968C3.72681 6.11002 4.28791 6.38401 5.15608 6.8041L8.22334 8.28832C10.1921 9.241 10.9293 9.575 11.7 9.575C12.4707 9.575 13.2078 9.241 15.1767 8.28832L18.2439 6.8041C19.1121 6.38401 19.6732 6.11002 20.029 5.86968C20.1191 5.80882 20.1798 5.76079 20.2201 5.725C20.1798 5.68921 20.1191 5.64118 20.029 5.58031C19.6732 5.33998 19.1121 5.06599 18.2439 4.64589L15.1767 3.16168C13.2078 2.209 12.4707 1.875 11.7 1.875ZM20.2942 5.80548C20.2936 5.80545 20.2911 5.80191 20.2879 5.79498C20.2931 5.80205 20.2947 5.80552 20.2942 5.80548ZM20.2879 5.65503C20.2911 5.64809 20.2936 5.64455 20.2942 5.64452C20.2947 5.64448 20.2931 5.64795 20.2879 5.65503ZM3.10583 5.64452C3.10635 5.64455 3.10894 5.64809 3.11206 5.65502C3.10688 5.64795 3.10532 5.64448 3.10583 5.64452ZM3.11206 5.79497C3.10894 5.80191 3.10635 5.80545 3.10583 5.80548C3.10532 5.80552 3.10688 5.80205 3.11206 5.79497ZM7.64908 1.49539C9.35927 0.667095 10.4785 0.125 11.7 0.125C12.9215 0.125 14.0407 0.667093 15.7509 1.49539C15.8128 1.52536 15.8754 1.5557 15.9389 1.58641L19.068 3.10056C19.8568 3.48216 20.535 3.8103 21.0085 4.13014C21.4826 4.45038 22.025 4.94177 22.025 5.725C22.025 6.50823 21.4826 6.99962 21.0085 7.31986C20.535 7.6397 19.8568 7.96784 19.068 8.34944L15.9389 9.86359C15.8754 9.89429 15.8128 9.92464 15.7509 9.95461C14.0407 10.7829 12.9215 11.325 11.7 11.325C10.4785 11.325 9.35927 10.7829 7.64909 9.95461C7.5872 9.92464 7.52455 9.89429 7.46109 9.86358L4.39382 8.37937C4.37313 8.36936 4.35251 8.35938 4.33196 8.34944C3.54322 7.96784 2.86498 7.6397 2.39147 7.31986C1.91736 6.99962 1.375 6.50823 1.375 5.725C1.375 4.94177 1.91736 4.45038 2.39147 4.13014C2.86498 3.8103 3.54322 3.48216 4.33197 3.10055C4.35251 3.09062 4.37313 3.08064 4.39382 3.07063L7.46109 1.58641C7.52455 1.55571 7.5872 1.52536 7.64908 1.49539Z" fill="#159747"/>
<path fill-rule="evenodd" clip-rule="evenodd" d="M4.61698 11.1086C4.8331 10.6764 5.35869 10.5012 5.79092 10.7173L7.89092 11.7673C8.32315 11.9834 8.49835 12.509 8.28223 12.9413C8.06611 13.3735 7.54052 13.5487 7.10829 13.3326L5.00829 12.2826C4.57606 12.0665 4.40087 11.5409 4.61698 11.1086Z" fill="#159747"/>
<path fill-rule="evenodd" clip-rule="evenodd" d="M17.732 2.70861C17.9482 3.14084 17.773 3.66643 17.3407 3.88255L6.84072 9.13255C6.40849 9.34866 5.8829 9.17347 5.66679 8.74123C5.45067 8.309 5.62587 7.78341 6.0581 7.5673L16.5581 2.3173C16.9903 2.10118 17.5159 2.27638 17.732 2.70861Z" fill="#159747"/>
</svg>
