<svg width="84" height="84" viewBox="0 0 84 84" fill="none" xmlns="http://www.w3.org/2000/svg">
<path fill-rule="evenodd" clip-rule="evenodd" d="M42.1951 10.0002C34.0051 10.0002 27.3659 16.6395 27.3659 24.8295C27.3659 33.0195 34.0051 39.6588 42.1951 39.6588C50.3851 39.6588 57.0244 33.0195 57.0244 24.8295C57.0244 16.6395 50.3851 10.0002 42.1951 10.0002ZM32.0488 24.8295C32.0488 19.2258 36.5915 14.6832 42.1951 14.6832C47.7988 14.6832 52.3415 19.2258 52.3415 24.8295C52.3415 30.4332 47.7988 34.9759 42.1951 34.9759C36.5915 34.9759 32.0488 30.4332 32.0488 24.8295Z" fill="#159747"/>
<path fill-rule="evenodd" clip-rule="evenodd" d="M42.1951 44.3417C35.8284 44.3417 29.9493 45.8114 25.5806 48.3078C21.278 50.7664 18 54.5197 18 59.171C18 63.8223 21.278 67.5756 25.5806 70.0341C29.9493 72.5306 35.8284 74.0002 42.1951 74.0002C48.5618 74.0002 54.4409 72.5306 58.8097 70.0341C63.1122 67.5756 66.3902 63.8223 66.3902 59.171C66.3902 54.5197 63.1122 50.7664 58.8097 48.3078C54.4409 45.8114 48.5618 44.3417 42.1951 44.3417ZM22.6829 59.171C22.6829 56.9254 24.297 54.4348 27.9039 52.3737C31.4447 50.3505 36.4924 49.0246 42.1951 49.0246C47.8979 49.0246 52.9456 50.3505 56.4863 52.3737C60.0933 54.4348 61.7073 56.9254 61.7073 59.171C61.7073 61.4165 60.0933 63.9071 56.4863 65.9682C52.9456 67.9915 47.8979 69.3173 42.1951 69.3173C36.4924 69.3173 31.4447 67.9915 27.9039 65.9682C24.297 63.9071 22.6829 61.4165 22.6829 59.171Z" fill="#159747"/>
</svg>
