<svg width="31" height="41" viewBox="0 0 31 41" fill="none" xmlns="http://www.w3.org/2000/svg">
<path fill-rule="evenodd" clip-rule="evenodd" d="M15.5 0C10.2533 0 6 4.25329 6 9.5C6 14.7467 10.2533 19 15.5 19C20.7467 19 25 14.7467 25 9.5C25 4.25329 20.7467 0 15.5 0ZM9 9.5C9 5.91015 11.9101 3 15.5 3C19.0899 3 22 5.91015 22 9.5C22 13.0899 19.0899 16 15.5 16C11.9101 16 9 13.0899 9 9.5Z" fill="#AEAEAE"/>
<path fill-rule="evenodd" clip-rule="evenodd" d="M15.5 22C11.4213 22 7.65503 22.9415 4.8563 24.5408C2.09999 26.1158 0 28.5203 0 31.5C0 34.4797 2.09999 36.8842 4.8563 38.4592C7.65503 40.0585 11.4213 41 15.5 41C19.5787 41 23.345 40.0585 26.1437 38.4592C28.9 36.8842 31 34.4797 31 31.5C31 28.5203 28.9 26.1158 26.1437 24.5408C23.345 22.9415 19.5787 22 15.5 22ZM3 31.5C3 30.0615 4.03401 28.4659 6.34471 27.1455C8.61298 25.8494 11.8467 25 15.5 25C19.1533 25 22.387 25.8494 24.6553 27.1455C26.966 28.4659 28 30.0615 28 31.5C28 32.9385 26.966 34.5341 24.6553 35.8545C22.387 37.1506 19.1533 38 15.5 38C11.8467 38 8.61298 37.1506 6.34471 35.8545C4.03401 34.5341 3 32.9385 3 31.5Z" fill="#AEAEAE"/>
</svg>
